<?xml version="1.0" encoding="UTF-8"?>
<svg version="1.1" xmlns="http://www.w3.org/2000/svg" width="512" height="512">
<path d="M0 0 C0.99702942 0.00304138 1.99405884 0.00608276 3.02130127 0.00921631 C19.42874707 0.08286863 35.27265325 1.05530742 51.375 4.4375 C52.39029785 4.64648926 53.4055957 4.85547852 54.45166016 5.07080078 C91.59546555 12.96304656 126.45945445 29.06654422 156.375 52.4375 C157.34695313 53.19675781 158.31890625 53.95601562 159.3203125 54.73828125 C174.69672786 67.07007875 189.2622069 80.8701558 201.375 96.4375 C202.15101563 97.3965625 202.92703125 98.355625 203.7265625 99.34375 C228.15646133 130.05562281 244.03430813 166.56672921 252.1875 204.8125 C252.38255127 205.72580078 252.57760254 206.63910156 252.77856445 207.58007812 C255.90464878 223.14568902 256.78620236 238.53585601 256.75 254.375 C256.74868576 255.78806427 256.74868576 255.78806427 256.74734497 257.22967529 C256.54118072 324.67035421 224.77887848 386.06461607 180.375 435.4375 C179.75109375 436.15292969 179.1271875 436.86835938 178.484375 437.60546875 C176.15202587 440.25311692 173.77585018 442.85170061 171.375 445.4375 C170.58609375 446.28755615 170.58609375 446.28755615 169.78125 447.15478516 C145.23723665 473.33739031 111.42119972 490.90694765 77.375 501.4375 C76.24118896 501.78868896 76.24118896 501.78868896 75.08447266 502.14697266 C66.5882009 504.73103276 58.00955058 506.83448037 49.3125 508.625 C48.57064453 508.7799292 47.82878906 508.9348584 47.06445312 509.09448242 C31.58952684 512.12900842 16.23129233 512.84523908 0.5 512.8125 C-0.98167664 512.81168427 -0.98167664 512.81168427 -2.49328613 512.81085205 C-18.54079861 512.77035584 -33.88594806 511.78992572 -49.625 508.4375 C-50.67445801 508.22319336 -51.72391602 508.00888672 -52.80517578 507.78808594 C-67.91253992 504.6501391 -82.32072029 500.20472803 -96.625 494.4375 C-97.79337402 493.97005371 -97.79337402 493.97005371 -98.98535156 493.49316406 C-118.27897037 485.65798152 -135.99069802 474.89952963 -152.625 462.4375 C-153.53838135 461.75953369 -153.53838135 461.75953369 -154.47021484 461.06787109 C-164.1434749 453.84654122 -172.94131154 445.809666 -181.625 437.4375 C-182.49253906 436.61121094 -183.36007813 435.78492188 -184.25390625 434.93359375 C-189.35778898 429.9717321 -193.92896283 424.68675136 -198.32373047 419.08935547 C-199.24117874 417.92472976 -200.16532782 416.76536739 -201.09423828 415.60986328 C-210.03768132 404.47448191 -217.56440378 392.84182209 -224.625 380.4375 C-224.99963379 379.7966748 -225.37426758 379.15584961 -225.76025391 378.49560547 C-240.46437626 353.33092493 -249.27909997 324.14534507 -253.625 295.4375 C-253.80232666 294.31867432 -253.97965332 293.19984863 -254.16235352 292.04711914 C-255.84376341 280.32514053 -255.98234341 268.70251024 -255.9375 256.875 C-255.93426727 255.34439438 -255.93426727 255.34439438 -255.93096924 253.78286743 C-255.88133352 239.15539476 -255.63419712 224.80486162 -252.625 210.4375 C-252.42632324 209.46264648 -252.22764648 208.48779297 -252.02294922 207.48339844 C-243.8359893 168.34543722 -228.15219655 132.10041786 -203.625 100.4375 C-202.93921875 99.53902344 -202.2534375 98.64054687 -201.546875 97.71484375 C-196.27692525 90.95602608 -190.53345326 84.63812952 -184.625 78.4375 C-184.05330078 77.83711914 -183.48160156 77.23673828 -182.89257812 76.61816406 C-174.8843274 68.26941183 -166.66011118 60.62413949 -157.36230469 53.73486328 C-155.64124144 52.44962858 -153.948612 51.1332984 -152.2578125 49.80859375 C-121.2533902 25.8623735 -83.21715529 9.81214587 -44.625 3.4375 C-43.87504761 3.31361908 -43.12509521 3.18973816 -42.35241699 3.06210327 C-28.1890162 0.78072372 -14.33540969 -0.09365219 0 0 Z " fill="#7F8080" transform="translate(255.625,-0.4375)"/>
<path d="M0 0 C1.11152435 -0.0065712 2.22304871 -0.0131424 3.36825562 -0.01991272 C7.04278643 -0.03960045 10.7172763 -0.05130296 14.3918457 -0.0612793 C15.65343821 -0.06535482 16.91503071 -0.06943035 18.21485329 -0.07362938 C24.21364369 -0.09233168 30.21240964 -0.10689548 36.2112214 -0.11524135 C43.0844495 -0.12496644 49.9573515 -0.15116534 56.83046502 -0.19174224 C62.82225864 -0.22587247 68.81389771 -0.23741366 74.80579567 -0.24144554 C77.33279431 -0.24627665 79.85979036 -0.25778953 82.38672447 -0.27648354 C100.36324409 -0.40112634 117.90606209 0.26528092 134.56762695 7.80200195 C135.34251465 8.14263672 136.11740234 8.48327148 136.91577148 8.83422852 C164.01368459 21.13485424 185.26251367 42.92015716 195.9855957 70.828125 C203.40579433 90.98191449 203.62996897 111.50003378 203.92519665 132.69738102 C203.99167836 137.45177229 204.09182447 142.20011812 204.27246094 146.95166016 C205.51053286 180.3324195 205.51053286 180.3324195 199.33227539 187.21142578 C195.84495249 190.06489406 192.13981874 191.89030992 187.91824341 193.41934204 C185.31138205 194.38843012 183.15961318 195.80079468 180.87231445 197.3684082 C179.50639009 198.169905 178.13404777 198.96057712 176.75512695 199.73950195 C175.98418701 200.17875 175.21324707 200.61799805 174.41894531 201.07055664 C158.25077882 210.1258867 141.58908456 217.69958871 123.88012695 223.17700195 C123.12425293 223.41112793 122.36837891 223.64525391 121.58959961 223.88647461 C113.09332785 226.47053472 104.51467754 228.57398233 95.81762695 230.36450195 C95.07577148 230.51943115 94.33391602 230.67436035 93.56958008 230.83398438 C78.0946538 233.86851038 62.73641928 234.58474103 47.00512695 234.55200195 C45.52345032 234.55118622 45.52345032 234.55118622 44.01184082 234.550354 C27.96432834 234.5098578 12.61917889 233.52942767 -3.11987305 230.17700195 C-4.16933105 229.96269531 -5.21878906 229.74838867 -6.30004883 229.52758789 C-21.40741297 226.38964105 -35.81559333 221.94422998 -50.11987305 216.17700195 C-50.89878906 215.86537109 -51.67770508 215.55374023 -52.48022461 215.23266602 C-71.18096543 207.63825257 -88.34693017 197.28921654 -104.55200195 185.31518555 C-106.0469498 184.22994001 -107.58280184 183.20171609 -109.11987305 182.17700195 C-109.42254849 179.60341205 -109.52940673 177.26894618 -109.50805664 174.69238281 C-109.5133136 173.91960495 -109.51857056 173.14682709 -109.52398682 172.35063171 C-109.53724631 169.78083367 -109.5284152 167.21165076 -109.51831055 164.6418457 C-109.52033266 162.8469684 -109.52324525 161.0520919 -109.52700806 159.25721741 C-109.53144195 155.47999309 -109.52497764 151.70298094 -109.51098633 147.92578125 C-109.49407772 143.13168681 -109.50361065 138.33810305 -109.52170372 133.54402828 C-109.5326715 129.8263024 -109.52903342 126.10869246 -109.52132034 122.3909626 C-109.51934429 120.62709045 -109.52168429 118.86320713 -109.528759 117.09934807 C-109.63721463 82.39024276 -98.28291902 53.76700678 -73.8894043 28.90356445 C-58.11165987 13.83938636 -38.27894956 5.28513163 -17.11987305 1.17700195 C-16.28203781 1.00066727 -15.44420258 0.82433258 -14.58097839 0.64265442 C-9.71596159 -0.01187841 -4.90381805 0.01264695 0 0 Z " fill="#E5E6E6" transform="translate(209.119873046875,277.822998046875)"/>
<path d="M0 0 C1.55849571 1.33476387 3.10125719 2.68819606 4.625 4.0625 C5.30949219 4.65417969 5.99398437 5.24585938 6.69921875 5.85546875 C14.99576826 13.50003009 22.01193557 24.3875369 25.625 35.0625 C25.92148437 35.93003906 26.21796875 36.79757813 26.5234375 37.69140625 C32.23711529 57.79411665 29.2719418 79.62021047 19.54296875 97.875 C16.65236675 102.67893327 13.37516904 106.90454558 9.625 111.0625 C8.73748047 112.08923828 8.73748047 112.08923828 7.83203125 113.13671875 C-3.38408922 125.30943798 -20.61518408 134.11939271 -37.18896484 135.25537109 C-59.73660234 135.88243332 -78.20152866 132.9372069 -95.6875 117.6875 C-97.26780823 116.16409321 -98.830767 114.62246372 -100.375 113.0625 C-101.14457031 112.32644531 -101.91414063 111.59039062 -102.70703125 110.83203125 C-116.36005244 96.94642027 -122.81964564 76.82712611 -122.7409668 57.67626953 C-122.27005278 40.65207102 -115.37094378 24.02200517 -104.375 11.0625 C-103.78847656 10.28003906 -103.20195312 9.49757812 -102.59765625 8.69140625 C-94.34811858 -1.06595553 -83.13426825 -7.39679246 -71.375 -11.9375 C-70.46105469 -12.29714844 -69.54710937 -12.65679687 -68.60546875 -13.02734375 C-45.9362429 -20.22971858 -18.5189419 -14.36911803 0 0 Z " fill="#D0D1D1" transform="translate(302.375,128.9375)"/>
</svg>
